inDegrees=no
num_controls=7
num_derivatives=13
num_iterations=123
num_multipliers=7
num_parameters=0
num_slacks=7
num_states=26
objective=5.901819
objective_accelerations=0.756642
objective_balance=0.022455
objective_effort=0.514712
objective_height=4.583627
objective_ligament=0.024383
solver_duration=1041.197684
status=Solve_Succeeded
success=true
DataType=double
version=3
OpenSimVersion=4.4-2022-07-23-0e9fedc
endheader
time	/jointset/ground_pelvis/pelvis_tilt/value	/jointset/ground_pelvis/pelvis_tx/value	/jointset/ground_pelvis/pelvis_ty/value	/jointset/hip_r/hip_flexion_r/value	/jointset/hip_r/hip_adduction_r/value	/jointset/hip_r/hip_rotation_r/value	/jointset/back/lumbar_extension/value	/jointset/patellofemoral_r/patellar_flexion_r/value	/jointset/knee_r/knee_flexion_r/value	/jointset/knee_r/knee_adduction_r/value	/jointset/knee_r/knee_rotation_r/value	/jointset/ankle_r/ankle_angle_r/value	/jointset/subtalar_r/subtalar_angle_r/value	/jointset/ground_pelvis/pelvis_tilt/speed	/jointset/ground_pelvis/pelvis_tx/speed	/jointset/ground_pelvis/pelvis_ty/speed	/jointset/hip_r/hip_flexion_r/speed	/jointset/hip_r/hip_adduction_r/speed	/jointset/hip_r/hip_rotation_r/speed	/jointset/back/lumbar_extension/speed	/jointset/patellofemoral_r/patellar_flexion_r/speed	/jointset/knee_r/knee_flexion_r/speed	/jointset/knee_r/knee_adduction_r/speed	/jointset/knee_r/knee_rotation_r/speed	/jointset/ankle_r/ankle_angle_r/speed	/jointset/subtalar_r/subtalar_angle_r/speed	/forceset/tau_hip_flexion_r	/forceset/tau_hip_adduction_r	/forceset/tau_hip_rotation_r	/forceset/tau_knee_flexion_r	/forceset/tau_ankle_angle_r	/forceset/tau_subtalar_angle_r	/forceset/tau_lumbar_extension	lambda_cid13_p0	lambda_cid14_p0	lambda_cid14_p1	lambda_cid14_p2	lambda_cid14_p3	lambda_cid14_p4	lambda_cid14_p5	/jointset/ground_pelvis/pelvis_tilt/accel	/jointset/ground_pelvis/pelvis_tx/accel	/jointset/ground_pelvis/pelvis_ty/accel	/jointset/hip_r/hip_flexion_r/accel	/jointset/hip_r/hip_adduction_r/accel	/jointset/hip_r/hip_rotation_r/accel	/jointset/back/lumbar_extension/accel	/jointset/patellofemoral_r/patellar_flexion_r/accel	/jointset/knee_r/knee_flexion_r/accel	/jointset/knee_r/knee_adduction_r/accel	/jointset/knee_r/knee_rotation_r/accel	/jointset/ankle_r/ankle_angle_r/accel	/jointset/subtalar_r/subtalar_angle_r/accel	gamma_cid13_p0	gamma_cid14_p0	gamma_cid14_p1	gamma_cid14_p2	gamma_cid14_p3	gamma_cid14_p4	gamma_cid14_p5
1.5	-0.1242847782141387	0.02195436348501183	0.7942307460848387	0.9173327210468044	-0.2277003230029071	-0.1093866749613192	-0.6370514151293094	1.015806989796612	1.015806989796577	-0.04843653793709256	0.1745197894925886	0.3159690977299842	0.1395186971744403	0.5576914022829527	0.2438118383999964	0.604569248255618	-2.304147324426505	0.01890098455004042	-0.2268331378319599	0.7993693264371681	-2.160651983080914	-2.160651983081554	0.4692011379485655	4.020378146561288e-05	-0.5294348914913974	-0.1825258704847826	-0.1839249231428382	0.006327590742511378	0.0185664757269885	-0.3059548410710025	0.01031378463439155	0.00044850623405132	0.2278402970261739	-5.539887592415604	-38.25895751112268	-5.946510017634443	0.7330907822081657	-3.704630728770427	-625.3031051008213	61.86379354607836	0.3131286604972249	0.6784706596472256	-0.6089246057901648	-1.13702075459405	-0.2216493269305637	-0.5987853997495907	1.985859917591255	-1.485833291247804	-1.485833291247781	0.5113621401075272	-0.02312175695207579	-0.8457290156323493	-0.496252778355318	2.416359394313907e-07	2.121268236770651e-07	-1.21354804055546e-06	2.000351763544281e-06	1.824014068589434e-09	4.001033393021359e-07	-6.499393134102893e-07
1.51	-0.1186925045053239	0.02442614245011946	0.8002447897636565	0.8942364371626133	-0.2275236115986694	-0.1116848019332922	-0.6289602971537238	0.9941288078794254	0.9941288078794115	-0.04371693723301179	0.1745208183154503	0.3106329565906874	0.1376671265799449	0.5606699517900723	0.2505125776891894	0.59810713285923	-2.314799139249675	0.01643473269339851	-0.2327976350311338	0.8187387795494974	-2.174684666105973	-2.174684666106332	0.4746779526142284	0.0001489125393833386	-0.5376994261012004	-0.1877379152547606	-0.1757631204729607	0.005110266914013195	0.01862161313990063	-0.3013093393814814	0.01189409830642126	-0.000346062168545704	0.2203859087484628	-6.478546396526299	-37.4174775038943	-6.016358468716426	0.5981393397366604	-3.739393734170251	-619.3941031287073	61.35889386373717	0.2762263061809273	0.6611805063641585	-0.684622928634196	-0.9826918970885454	-0.2599590923969874	-0.5957158040602961	1.89516463816727	-1.317074260048239	-1.317074260005984	0.5594484649848254	0.02565853284816842	-0.8026625884284826	-0.5261871727972863	2.425029100855744e-07	1.928126234271928e-07	-1.502281377233151e-06	1.812592311337878e-06	3.851091196003547e-08	4.174434578873311e-07	-8.998390325315802e-07
1.52	-0.1130732436593706	0.02696398979668011	0.8061902587040958	0.8710429491200119	-0.2273717319084552	-0.1140426606620571	-0.620678949320994	0.9723192814415913	0.9723192814416143	-0.03894384691518343	0.1745224924938728	0.3052170007243331	0.1357649341684573	0.5630888297116797	0.2570255146905992	0.5908543005799339	-2.323588156109256	0.01393464174205875	-0.2387794891926595	0.8374152978663932	-2.186920887207564	-2.186920887207643	0.4798990606874051	0.0001692749246757225	-0.5453978369019642	-0.1926502338838435	-0.1676013178030438	0.003892943085677373	0.01867675055256503	-0.2966638376919966	0.01347441197848989	-0.001140630570870923	0.2129315204707756	-7.491983259565059	-36.56895045962243	-6.076126667899547	0.4514755770607459	-3.804748488756768	-613.3959615194282	60.92999705816531	0.2011943433944701	0.6409102020908006	-0.7670679823717993	-0.7644611618758849	-0.2284171458700646	-0.6022567922200669	1.847272958504307	-1.126540906554111	-1.126540906554111	0.4602208216101822	-0.04079103147704941	-0.7325042538242232	-0.4363075501762603	2.429337521833143e-07	1.750788630080449e-07	-1.75097713239578e-06	1.636031401486288e-06	7.183565875613641e-08	4.290453135427168e-07	-1.108583406072168e-06
1.53	-0.1074325794513487	0.02956592282763912	0.8120593219437784	0.8477709223645025	-0.227244942462976	-0.1164611219956398	-0.6122144661531225	0.9503963806756418	0.9503963806756386	-0.03412044484443413	0.1745242572413533	0.2997269215894148	0.1338152640927991	0.5649514494535762	0.2633185429085199	0.5828336426442454	-2.33049787329357	0.011420683114289	-0.2449226283813537	0.855347609543417	-2.197348182902914	-2.197348182903264	0.4847324695392352	0.000174764750544601	-0.5525211122787722	-0.1972295300315175	-0.1595749537000971	0.002720602752418778	0.01873126563440543	-0.2921055874752717	0.01474712424695196	-0.002127660457824713	0.2055456616908592	-8.578618088572632	-35.86322412573644	-6.252948257555166	0.3331416964732222	-3.680275417975542	-607.7640542327646	60.32645474944447	0.1649231658250799	0.6171403465504632	-0.8381829065289902	-0.6063111510035153	-0.2632097960291698	-0.6214607638509405	1.746151347280891	-0.9542100156143684	-0.9542100156550741	0.4872844662445291	0.02009581113985438	-0.6876290691385626	-0.4607648021873002	2.429012076898329e-07	1.590243199090417e-07	-1.957132957198657e-06	1.471368942886685e-06	1.015881200134332e-07	4.345502648351799e-07	-1.27360022493326e-06
1.54	-0.1017760635706621	0.0322295143837582	0.8178444549626314	0.8244393816062936	-0.2271433575187079	-0.118941238377461	-0.6035746716534863	0.9283785297298097	0.9283785297298	-0.02925023197527384	0.174525852251266	0.294168531722822	0.1318213962246426	0.5662591642450143	0.2693572197226135	0.5740682564140389	-2.335490956649664	0.008893741494552911	-0.2511104988363178	0.8724775642196493	-2.205910923181824	-2.205910923182445	0.4892612203620305	0.0001353274372514793	-0.5590599832367511	-0.2014897923841446	-0.1515485895971426	0.001548262419190798	0.01878578071615151	-0.2875473372585582	0.01601983651542195	-0.003114690344728091	0.1981598029109485	-9.729230758166509	-35.15099254189834	-6.420038734880617	0.2034418531090806	-3.582401446981168	-602.0523713718653	59.79567145722093	0.09021335330245521	0.5900399213255683	-0.9160136412753989	-0.3811343962315585	-0.2310137442631465	-0.6112030454738459	1.686801558345755	-0.753629823266124	-0.753629823266124	0.3992892158030535	-0.04977645930984805	-0.6156233700580729	-0.3725007911665908	2.376073758910056e-07	1.466076898653382e-07	-2.031219970266172e-06	1.344454583928527e-06	1.163934694240928e-07	4.308560108067414e-07	-1.345936131836128e-06
1.55	-0.09610939244181067	0.03495218612963654	0.8235382823642505	0.8010676646597377	-0.2270669794044673	-0.1214835110326556	-0.5947676319116612	0.9062845110780428	0.9062845110780423	-0.02433649669652719	0.1745266882374819	0.2885478345783605	0.1297867694045123	0.5669759409401399	0.2751304260797813	0.564582394066854	-2.338526420384867	0.00637795625524093	-0.2573556618767749	0.8887791783485809	-2.212571200212424	-2.212571200212633	0.4934398642121028	3.681744193433979e-05	-0.5649726773080471	-0.2053836616551603	-0.1433544605448858	4.349050942943122e-05	0.01889162711623507	-0.2837180374026544	0.01796234850462032	-0.004250696734511893	0.1906851864433065	-10.89039931867254	-34.26317212850769	-6.638247734696325	0.1014955456583704	-3.610125311822749	-596.7778674249167	59.30319221910896	0.04755195962497988	0.5639780144471654	-0.9820152834738471	-0.2158349695016518	-0.2624098757848307	-0.6325982561912532	1.579160470275796	-0.5740295879126879	-0.5740295878509177	0.419999260393557	0.01104148836254371	-0.5630064316478502	-0.3902004829512832	2.262516261099324e-07	1.383825683418713e-07	-1.953140743725562e-06	1.261032600644207e-06	1.139771464897146e-07	4.165626723868294e-07	-1.311487509743657e-06
1.56	-0.09043852511960693	0.0377311933433928	0.8291338225919905	0.7776753765543639	-0.2270158689349913	-0.1240885203828636	-0.5858021122025261	0.8841335290669984	0.8841335290669831	-0.0193824055210603	0.1745267250754457	0.2828712276919916	0.1277147297940985	0.5670984029155897	0.2806243132981963	0.5544108216382737	-2.339605188413558	0.003840212535154115	-0.2636578378316132	0.904173557681902	-2.217303595041256	-2.217303595041054	0.4973323996935128	-2.450223316383164e-05	-0.5702419316186347	-0.2089723504414517	-0.135160331492641	-0.001461281400390017	0.01899747351594006	-0.2798887375467785	0.01990486049380597	-0.005386703124383349	0.1832105699756632	-12.04825253000117	-33.3736264322589	-6.852476822810853	-0.005286514074076768	-3.646950872997423	-591.4830846646366	58.87643019316796	-0.02864959063304568	0.5341760935751917	-1.053155657554472	0.01020474507087996	-0.2354054404179321	-0.6226056283498912	1.505354599223386	-0.3680533829128003	-0.3680533829128035	0.3420675420704218	-0.04233839526643357	-0.4869354179160644	-0.3114646942214711	2.186993769373544e-07	1.254734123565036e-07	-1.980723962443368e-06	1.118565926187063e-06	1.257595285193076e-07	4.013203025311665e-07	-1.327646037615935e-06
1.57	-0.08476946507431073	0.04056360133112114	0.8346242931479738	0.7542823317450071	-0.2269900529793343	-0.1267573693491341	-0.5766872513284339	0.8619449682141587	0.8619449682141213	-0.01439151140410385	0.1745264872407026	0.2771451662944803	0.1256086228958403	0.5666151623574639	0.2857961562730607	0.5435772458520345	-2.338658281243803	0.001325704535715827	-0.27010897292455	0.9186310869583891	-2.220067473330267	-2.220067473330105	0.5007983188887423	-2.401711874873294e-05	-0.5748630224365557	-0.212191566574208	-0.1272570137180841	-0.002761278348874924	0.01905728125281832	-0.2758379084916771	0.0211883994791195	-0.006684657033335505	0.175932992437849	-13.19857461755987	-32.73954415066613	-7.186583149375731	-0.08745827639833445	-3.407355644799297	-586.590402264344	58.23934810525633	-0.07292118365337412	0.4995536624858589	-1.114290008567623	0.1887679960552831	-0.259119664700144	-0.6556375464747758	1.390822564749407	-0.1794325801862781	-0.1794325801922732	0.3413337031064621	0.02119865577019946	-0.43351636677866	-0.31879037209865	2.159015035253956e-07	1.0670921329376e-07	-2.140385237734194e-06	9.022933877638894e-07	1.552902917538643e-07	3.848916433808147e-07	-1.407063502944147e-06
